HIERARCHY
ROOT Hips
{
 OFFSET 0.000000 0.000000 0.000000
 CHANNELS 6 Xposition Yposition Zposition Yrotation Xrotation Zrotation
 JOINT Chest
 {
  OFFSET 0.000000 9.585900 0.002600
  CHANNELS 3 Yrotation Xrotation Zrotation
  JOINT Chest2
  {
   OFFSET 0.000000 9.601200 -0.005300
   CHANNELS 3 Yrotation Xrotation Zrotation
   JOINT Chest3
   {
    OFFSET 0.000000 9.561800 0.000000
    CHANNELS 3 Yrotation Xrotation Zrotation
    JOINT Chest4
    {
     OFFSET 0.000000 9.552100 0.000000
     CHANNELS 3 Yrotation Xrotation Zrotation
     JOINT Neck
     {
      OFFSET 0.000000 14.453000 0.000000
      CHANNELS 3 Yrotation Xrotation Zrotation
      JOINT Head
      {
       OFFSET 0.000000 8.936500 -0.011300
       CHANNELS 3 Yrotation Xrotation Zrotation
       End Site
       {
        OFFSET 0.000000 17.073600 -0.006000
       }
      }
     }
     JOINT RightCollar
     {
      OFFSET -2.921100 9.558500 0.000000
      CHANNELS 3 Yrotation Xrotation Zrotation
      JOINT RightShoulder
      {
       OFFSET -13.519700 0.000000 0.000000
       CHANNELS 3 Yrotation Xrotation Zrotation
       JOINT RightElbow
       {
        OFFSET 0.000000 -29.696600 0.000000
        CHANNELS 3 Yrotation Xrotation Zrotation
        JOINT RightWrist
        {
         OFFSET 0.000000 -24.004700 0.000000
         CHANNELS 3 Yrotation Xrotation Zrotation
         End Site
         {
          OFFSET 0.000000 -17.728500 0.000000
         }
        }
       }
      }
     }
     JOINT LeftCollar
     {
      OFFSET 2.921100 9.558500 0.000000
      CHANNELS 3 Yrotation Xrotation Zrotation
      JOINT LeftShoulder
      {
       OFFSET 13.519700 0.000000 0.000000
       CHANNELS 3 Yrotation Xrotation Zrotation
       JOINT LeftElbow
       {
        OFFSET 0.000000 -29.696600 0.000000
        CHANNELS 3 Yrotation Xrotation Zrotation
        JOINT LeftWrist
        {
         OFFSET 0.000000 -24.004700 0.000000
         CHANNELS 3 Yrotation Xrotation Zrotation
         End Site
         {
          OFFSET 0.000000 -17.728500 0.000000
         }
        }
       }
      }
     }
    }
   }
  }
 }
 JOINT RightHip
 {
  OFFSET -7.771700 -0.012900 -0.001300
  CHANNELS 3 Yrotation Xrotation Zrotation
  JOINT RightKnee
  {
   OFFSET 0.000000 -40.869800 0.001200
   CHANNELS 3 Yrotation Xrotation Zrotation
   JOINT RightAnkle
   {
    OFFSET 0.000000 -39.717900 0.002100
    CHANNELS 3 Yrotation Xrotation Zrotation
    JOINT RightToe
    {
     OFFSET 0.000000 -4.965400 11.033500
     CHANNELS 3 Yrotation Xrotation Zrotation
     End Site
     {
      OFFSET 0.000000 -1.423100 5.872300
     }
    }
   }
  }
 }
 JOINT LeftHip
 {
  OFFSET 7.771700 -0.012900 -0.001300
  CHANNELS 3 Yrotation Xrotation Zrotation
  JOINT LeftKnee
  {
   OFFSET 0.000000 -40.869800 0.001200
   CHANNELS 3 Yrotation Xrotation Zrotation
   JOINT LeftAnkle
   {
    OFFSET 0.000000 -39.717900 0.002100
    CHANNELS 3 Yrotation Xrotation Zrotation
    JOINT LeftToe
    {
     OFFSET 0.000000 -4.965400 11.033500
     CHANNELS 3 Yrotation Xrotation Zrotation
     End Site
     {
      OFFSET 0.000000 -1.423100 5.872300
     }
    }
   }
  }
 }
}
MOTION
Frames: 16
Frame Time: 0.008333
-78.889687 47.506566 20.609555 176.311649 -32.728034 -0.041717 -0.295160 16.320150 2.252446 -0.477147 9.354115 1.726284 -0.553447 11.694662 2.152653 -0.477101 9.354185 1.726209 -0.554069 18.999151 -2.236554 -0.311760 -0.500741 -3.920390 8.380017 1.693516 -5.083653 3.710081 -21.331212 -10.867106 36.860948 -62.518423 -25.524854 12.292762 3.531579 -36.638234 -5.860613 -3.266810 -3.414267 0.671842 -25.907074 -2.888170 -70.721724 -46.640361 41.142978 -9.096792 5.513170 35.434044 34.308978 -45.590495 -33.222782 -111.561056 66.710980 -103.429268 2.233032 -3.809652 6.447429 -0.164863 -0.962855 0.016694 -13.911188 -51.760600 11.457756 89.279180 78.687793 89.502721 -3.556128 -8.458262 -7.476635 0.433353 0.952363 0.265959
-78.890965 47.508206 20.607509 176.303486 -32.866804 0.018234 -0.307892 16.310804 2.212330 -0.479341 9.344736 1.729159 -0.556146 11.682999 2.156253 -0.479294 9.344802 1.729154 -0.557713 19.048664 -2.287815 -0.303694 -0.408062 -4.012446 8.428167 1.693448 -5.107992 3.759502 -21.341420 -10.889829 36.406250 -62.351260 -25.122280 12.099838 3.288480 -36.606329 -5.865229 -3.306774 -3.430279 1.013753 -25.914907 -3.188595 -69.565774 -46.846952 40.233683 -8.745918 5.065421 35.453085 34.306164 -45.467336 -33.147177 -111.546898 66.684523 -103.496430 2.255254 -3.783621 6.518940 -0.211658 -0.977602 0.015252 -13.887813 -51.634192 11.384134 89.377807 78.685630 89.553575 -3.549658 -8.457161 -7.481643 0.437163 0.930432 0.247854
-78.886030 47.507756 20.605155 176.294075 -33.010545 0.041767 -0.304169 16.298052 2.210053 -0.485559 9.334914 1.731618 -0.563979 11.670683 2.159176 -0.485579 9.334953 1.731628 -0.558981 19.107426 -2.336932 -0.292285 -0.298042 -4.101136 8.478560 1.698852 -5.127051 3.801265 -21.356723 -10.924024 35.797565 -62.166889 -24.571883 11.962737 2.985199 -36.568949 -5.876887 -3.336115 -3.460589 1.404007 -25.893143 -3.511001 -68.347699 -47.107379 39.297374 -8.379438 4.602830 35.499838 34.318350 -45.377336 -33.026167 -111.607231 66.599373 -103.591253 2.197183 -3.639541 6.533556 -0.146854 -1.106500 0.028137 -13.905500 -51.498523 11.360874 89.496273 78.704730 89.648963 -3.578979 -8.537854 -7.522496 0.509255 0.981678 0.256197
-78.879122 47.504636 20.603038 176.308679 -33.154809 0.042917 -0.313936 16.279462 2.214345 -0.495721 9.323974 1.733150 -0.576798 11.656960 2.160843 -0.495743 9.323998 1.733131 -0.557435 19.175865 -2.382394 -0.288724 -0.173440 -4.132613 8.526139 1.702755 -5.138640 3.844149 -21.374108 -10.965654 35.201693 -61.971560 -24.021408 11.823031 2.665573 -36.513261 -5.897194 -3.353563 -3.496573 1.815345 -25.840483 -3.852009 -67.065941 -47.403668 38.346644 -7.999434 4.142178 35.576416 34.264792 -45.267515 -32.914978 -111.637336 66.566181 -103.636457 2.187530 -3.631259 6.517843 -0.138146 -1.110932 0.041681 -13.937188 -51.364053 11.342026 89.596513 78.703721 89.723806 -3.565232 -8.536663 -7.528780 0.495688 0.968651 0.237310
-78.867942 47.498978 20.601414 176.330516 -33.300359 0.019402 -0.322370 16.258626 2.235329 -0.508086 9.311896 1.734299 -0.592310 11.641881 2.162016 -0.508054 9.311883 1.734335 -0.554028 19.251368 -2.424565 -0.265720 -0.031271 -4.236361 8.563750 1.699402 -5.145978 3.891562 -21.394475 -11.005835 34.682616 -61.760025 -23.531001 11.669433 2.342636 -36.432994 -5.929084 -3.360359 -3.533216 2.213316 -25.764014 -4.201434 -65.697483 -47.711132 37.376384 -7.603001 3.680889 35.697025 34.202932 -45.174386 -32.769817 -111.678111 66.512902 -103.688852 2.152561 -3.613385 6.486661 -0.094925 -1.121530 0.071050 -13.976574 -51.228870 11.339396 89.695144 78.697319 89.810332 -3.547501 -8.538849 -7.527015 0.475011 0.960845 0.224836
-78.861845 47.491315 20.599593 176.340046 -33.449388 0.039656 -0.334049 16.241691 2.210378 -0.520595 9.299568 1.735287 -0.608033 11.626562 2.162951 -0.520548 9.299562 1.735366 -0.550670 19.329925 -2.463065 -0.244371 0.117527 -4.331499 8.593475 1.684467 -5.152243 3.942454 -21.422933 -11.035733 34.257240 -61.549614 -23.100217 11.505354 2.049974 -36.344348 -5.964486 -3.363437 -3.568897 2.555334 -25.674927 -4.543363 -64.221884 -48.017328 36.376881 -7.182284 3.230334 35.878659 34.201552 -45.064652 -32.655407 -111.697084 66.440800 -103.767395 2.149941 -3.569397 6.524226 -0.092798 -1.147124 0.080233 -13.929764 -51.098108 11.257634 89.752337 78.694149 89.864390 -3.539221 -8.542293 -7.497148 0.465142 0.964642 0.194642
-78.854396 47.482523 20.597744 176.363624 -33.605149 0.051150 -0.358894 16.234708 2.179771 -0.532520 9.287010 1.735243 -0.623077 11.610909 2.162538 -0.532529 9.287009 1.735272 -0.548711 19.409924 -2.495776 -0.229924 0.252739 -4.353307 8.616737 1.656618 -5.153992 4.001551 -21.460019 -11.054122 33.845795 -61.313418 -22.682383 11.331349 1.753640 -36.239770 -5.996023 -3.364675 -3.601878 2.811427 -25.582796 -4.862792 -62.633891 -48.320820 35.350129 -6.740990 2.801782 36.121477 34.175018 -44.948095 -32.530586 -111.711745 66.367597 -103.837270 2.150072 -3.540554 6.519173 -0.108727 -1.158000 0.087568 -13.890504 -50.963085 11.169715 89.787424 78.685338 89.907291 -3.549392 -8.534816 -7.444089 0.470010 0.962255 0.130915
-78.839073 47.471539 20.599218 176.401709 -33.747920 0.012492 -0.380078 16.218582 2.191430 -0.544200 9.273571 1.733615 -0.637782 11.594111 2.160144 -0.544237 9.273549 1.733607 -0.548960 19.490486 -2.522088 -0.215512 0.386728 -4.369819 8.632971 1.618612 -5.146984 4.067362 -21.502265 -11.061854 33.257241 -60.955425 -22.196278 11.182000 1.314063 -36.067562 -6.025877 -3.362497 -3.631927 2.982538 -25.496784 -5.153842 -60.951723 -48.607424 34.307774 -6.288633 2.379664 36.410279 34.102848 -44.867558 -32.354987 -111.715511 66.285767 -103.889181 2.133566 -3.520798 6.533435 -0.098356 -1.160902 0.098037 -13.917619 -50.841639 11.152416 89.848667 78.643465 89.997465 -3.596921 -8.513036 -7.431435 0.481843 0.951467 0.106100
-78.817667 47.460046 20.602796 176.450775 -33.886705 -0.065210 -0.397012 16.204713 2.236679 -0.555519 9.258673 1.730438 -0.652087 11.575525 2.155844 -0.555538 9.258660 1.730430 -0.551602 19.568895 -2.541278 -0.229089 0.562857 -4.470823 8.644374 1.574143 -5.130592 4.137069 -21.549651 -11.058159 32.691042 -60.619809 -21.717704 11.022402 0.917078 -35.904406 -6.054368 -3.361063 -3.659162 3.085668 -25.423123 -5.419864 -59.211736 -48.855714 33.252504 -5.828939 1.951979 36.743163 33.996639 -44.806213 -32.142270 -111.736863 66.197592 -103.914093 2.046229 -3.518290 6.499124 -0.018294 -1.146145 0.118556 -13.987948 -50.717673 11.183972 89.906237 78.617570 90.077600 -3.586997 -8.499322 -7.417260 0.455414 0.958593 0.088404
-78.802000 47.447053 20.610513 176.497737 -34.002540 -0.107377 -0.423537 16.175934 2.242638 -0.565818 9.242494 1.725423 -0.665211 11.555388 2.149255 -0.565820 9.242476 1.725387 -0.555462 19.641113 -2.552268 -0.234901 0.696956 -4.488767 8.654302 1.525821 -5.106679 4.211067 -21.602040 -11.043280 32.140044 -60.295306 -21.252791 10.849740 0.540910 -35.749130 -6.074608 -3.363924 -3.682283 3.135694 -25.363758 -5.667094 -57.445884 -49.059452 32.187808 -5.357315 1.532477 37.116464 33.937016 -44.741351 -31.984442 -111.707244 66.118179 -103.926603 2.006436 -3.501276 6.528727 0.003350 -1.132365 0.109489 -14.015602 -50.648530 11.152696 90.044175 78.578252 90.248840 -3.567413 -8.426088 -7.388549 0.428604 0.925495 0.088080
-78.788596 47.435604 20.619043 176.524079 -34.121723 -0.125526 -0.439963 16.155993 2.230697 -0.574152 9.225587 1.718840 -0.675948 11.534357 2.140775 -0.574122 9.225612 1.718789 -0.559924 19.704102 -2.555625 -0.233268 0.824345 -4.489074 8.663690 1.481103 -5.076931 4.285084 -21.660591 -11.015026 31.573092 -59.966831 -20.790360 10.671009 0.153646 -35.596053 -6.085477 -3.368295 -3.701653 3.154483 -25.320946 -5.898018 -55.665507 -49.231879 31.108044 -4.873866 1.134469 37.503149 33.906750 -44.661746 -31.840394 -111.661507 66.044277 -103.919663 1.970454 -3.482985 6.537621 0.021127 -1.114307 0.119572 -14.008843 -50.555955 11.102695 90.063483 78.544381 90.293110 -3.556016 -8.391159 -7.356405 0.404315 0.923480 0.062463
-78.783024 47.421341 20.634993 176.507962 -34.194767 -0.078334 -0.433497 16.090882 2.171410 -0.579138 9.208066 1.711698 -0.682498 11.512500 2.131741 -0.579098 9.208161 1.711663 -0.565392 19.755791 -2.551802 -0.216206 0.963766 -4.469798 8.667927 1.447457 -5.038758 4.352018 -21.726055 -10.970982 31.001457 -59.637287 -20.336512 10.478006 -0.243501 -35.453475 -6.092477 -3.368643 -3.717671 3.167998 -25.296325 -6.113169 -53.851610 -49.395776 29.974231 -4.395779 0.750187 37.867439 33.977954 -44.592800 -31.783020 -111.531346 66.000322 -103.872241 2.004274 -3.433466 6.579559 -0.054853 -1.098363 0.133975 -13.942249 -50.515786 11.014834 90.065412 78.516845 90.313572 -3.562107 -8.353629 -7.344835 0.401956 0.917006 0.053081
-78.770223 47.407698 20.654201 176.518418 -34.258531 -0.093975 -0.434414 16.015860 2.159395 -0.580010 9.189847 1.704491 -0.683865 11.489716 2.122730 -0.579990 9.189923 1.704478 -0.572174 19.793481 -2.541524 -0.264562 1.001761 -4.459717 8.664815 1.426673 -4.989867 4.404528 -21.794782 -10.915652 30.424043 -59.314119 -19.879755 10.264147 -0.646616 -35.331018 -6.100559 -3.360705 -3.729036 3.197725 -25.286357 -6.313401 -51.953226 -49.580405 28.728082 -3.934137 0.367944 38.176383 33.962784 -44.552112 -31.701559 -111.457907 65.981817 -103.841517 2.048461 -3.520710 6.602238 -0.133169 -0.976228 0.116185 -13.955956 -50.464029 11.009082 90.009566 78.504004 90.276441 -3.526809 -8.265821 -7.324696 0.356641 0.862129 0.012705
-78.754668 47.399094 20.669361 176.541515 -34.363806 -0.135739 -0.440343 15.979768 2.166410 -0.578136 9.170900 1.696974 -0.681791 11.465940 2.113369 -0.578114 9.170906 1.696975 -0.580074 19.815969 -2.525561 -0.293131 1.020421 -4.430303 8.663404 1.415015 -4.929909 4.434858 -21.858080 -10.857266 29.827069 -59.001555 -19.401233 10.033237 -1.057160 -35.236742 -6.114306 -3.343321 -3.737210 3.263263 -25.279357 -6.492665 -49.889269 -49.826168 27.298858 -3.481404 -0.012765 38.396990 33.960689 -44.483572 -31.548989 -111.407904 65.901076 -103.801062 2.003480 -3.481956 6.608093 -0.112284 -0.965927 0.149793 -14.052042 -50.373294 11.057975 90.052410 78.494410 90.306696 -3.505550 -8.219767 -7.326573 0.340331 0.853948 0.015260
-78.736024 47.393280 20.682988 176.574646 -34.492386 -0.205073 -0.448029 15.965937 2.197030 -0.577232 9.151439 1.689104 -0.680925 11.441541 2.103536 -0.577223 9.151426 1.689095 -0.586577 19.824062 -2.505101 -0.311450 1.034825 -4.391007 8.678692 1.402505 -4.863887 4.436920 -21.901873 -10.799942 29.196781 -58.704733 -18.886383 9.798538 -1.481434 -35.172759 -6.127826 -3.322767 -3.746203 3.373063 -25.259582 -6.643318 -47.551003 -50.173973 25.605056 -3.034311 -0.389418 38.509356 33.931186 -44.403872 -31.359349 -111.412020 65.803872 -103.775523 1.923761 -3.465596 6.571684 -0.048268 -0.947722 0.201202 -14.199624 -50.251025 11.146494 90.128064 78.485216 90.349372 -3.457870 -8.179186 -7.330586 0.295246 0.861442 0.046452
-78.726270 47.390672 20.692674 176.583254 -34.655893 -0.209875 -0.451047 15.989147 2.177659 -0.580970 9.132200 1.681203 -0.685841 11.417552 2.093581 -0.581007 9.132195 1.681225 -0.588873 19.818881 -2.484013 -0.321921 1.024758 -4.351995 8.718409 1.380725 -4.802832 4.412988 -21.917772 -10.742973 28.529561 -58.431837 -18.328071 9.569583 -1.914739 -35.140470 -6.129910 -3.309440 -3.759285 3.522815 -25.212536 -6.767646 -44.849867 -50.630914 23.587851 -2.591384 -0.778702 38.527477 33.934399 -44.265785 -31.210002 -111.415812 65.722019 -103.753151 1.847450 -3.372148 6.531145 0.033312 -1.006969 0.187722 -14.254782 -50.106238 11.141132 90.252743 78.470662 90.429799 -3.444671 -8.216554 -7.317020 0.290079 0.915932 0.034310
